<svg xmlns="http://www.w3.org/2000/svg" version="1.1" xmlns:xlink="http://www.w3.org/1999/xlink" xmlns:svgjs="http://svgjs.dev/svgjs" width="2000" height="2250" viewBox="0 0 2000 2250"><g transform="matrix(1,0,0,1,0,0)"><svg viewBox="0 0 320 360" data-background-color="#ffffff" preserveAspectRatio="xMidYMid meet" height="2250" width="2000" xmlns="http://www.w3.org/2000/svg" xmlns:xlink="http://www.w3.org/1999/xlink"><g id="tight-bounds" transform="matrix(1,0,0,1,0,0)"><svg viewBox="0 0 320 360" height="360" width="320"><g><svg></svg></g><g><svg viewBox="0 0 320 360" height="360" width="320"><g><path xmlns="http://www.w3.org/2000/svg" d="M297.491 100.645c-12.426-21.51-112.674-79.355-137.491-79.355-24.817 0-125.028 57.845-137.491 79.355-11.591 20.02-11.591 138.726 0 158.746 12.463 21.474 112.674 79.319 137.491 79.319 24.817 0 125.064-57.845 137.491-79.355 11.591-20.02 11.591-138.69 0-158.71zM309.481 93.705c-14.461-24.998-119.469-86.295-149.481-86.295-30.012 0-135.02 61.297-149.481 86.295-14.025 24.199-14.025 148.391 0 172.59 14.461 24.998 119.469 86.295 149.481 86.295 30.012 0 135.02-61.297 149.481-86.259 14.025-24.235 14.025-148.427 0-172.626zM300.906 261.353c-12.753 22.055-115.472 81.317-140.906 81.318-25.434 0-128.153-59.298-140.906-81.354-11.881-20.529-11.881-142.178 0-162.707 12.753-22.019 115.472-81.281 140.906-81.281 25.434 0 128.153 59.298 140.906 81.318 11.881 20.529 11.881 142.178 0 162.706z" fill="#000000" fill-rule="nonzero" stroke="none" stroke-width="1" stroke-linecap="butt" stroke-linejoin="miter" stroke-miterlimit="10" stroke-dasharray="" stroke-dashoffset="0" font-family="none" font-weight="none" font-size="none" text-anchor="none" style="mix-blend-mode: normal" data-fill-palette-color="tertiary"></path></g><g transform="matrix(1,0,0,1,70.13530817610061,90)"><svg viewBox="0 0 179.72938364779878 180" height="180" width="179.72938364779878"><g><svg viewBox="0 0 179.72938364779878 180" height="180" width="179.72938364779878"><g><svg viewBox="0 0 179.72938364779878 180" height="180" width="179.72938364779878"><g id="textblocktransform"><svg viewBox="0 0 179.72938364779878 180" height="180" width="179.72938364779878" id="textblock"><g><svg viewBox="0 0 179.72938364779878 180" height="180" width="179.72938364779878"><path d="M179.309 38.607C178.464 19.923 176.056 14.728 176.056 14.728 168.662-4.516 159.435-0.368 151.147 2.397 136.512 2.509 121.937 6.62 107.336 8.824 76.69 9.161 45.782 3.63 15.288 17.27 12.423 21.455-2.972 18.092 0.509 40.998 1.422 50.527 4.751 61.102 4.65 69.846 5.106 71.378 5.74 67.866 6.01 70.07 6.956 76.012 8.503 73.209 9.77 76.722 8.004 86.101 9.272 93.911 10.48 102.095 8.351 104.225 5.621 103.216 4.396 110.278 4.27 115.398 3.585 114.426 2.833 114.202 2.284 114.052 1.177 114.613 1.363 116.22 1.997 121.713-0.724 124.889 0.983 130.27-0.192 136.099 1.794 141.144 1.523 147.459 1.49 148.73 1.676 149.813 1.971 150.112 3.281 151.719 1.371 154.858 1.574 158.258 15.009 181.501 29.584 165.433 43.348 176.12 46.922 168.647 44.235 178.773 45.663 177.204 46.779 175.373 47.59 182.959 48.849 178.661 49.043 177.428 48.747 174.514 49.44 175.074 49.804 175.373 50.125 175.298 50.175 173.579 50.251 171.001 49.584 172.608 49.407 171.263 51.325 164.462 50.851 180.642 52.651 179.969 52.567 177.989 52.043 175.149 53.116 175.522 54.18 172.682 54.214 170.328 55.161 176.718 55.194 178.101 55.363 179.072 55.634 179.745 58.591 172.795 61.532 182.211 64.632 179.072 66.534 175.635 68.359 180.941 70.285 179.633 70.961 178.587 71.646 176.718 72.296 179.857 80.264 180.53 88.756 177.727 96.31 179.969 116.495 175.784 138.067 181.688 159.351 176.158 164.37 174.028 169.583 171.001 174.476 168.572 174.476 168.572 178.438 161.921 178.438 132.026S179.283 105.869 179.41 82.065C179.537 58.262 180.128 57.29 179.283 38.607Z" opacity="1" fill="#000000" data-fill-palette-color="tertiary"></path><g transform="matrix(1,0,0,1,31.58400000000001,19.1)"><svg width="116.56138364779876" viewBox="0.7300000190734863 -38.09000015258789 31.90999984741211 38.81999969482422" height="141.8" data-palette-color="#ffffff"><path d="M25.24-4.22Q26.22-5.05 26.79-6.37 27.37-7.69 27.37-9.14 27.37-10.6 26.81-11.4L26.81-11.4Q27.2-12.08 28.44-12.08 29.69-12.08 30.36-11.28 31.03-10.47 31.03-8.8 31.03-7.13 30.14-5.33 29.25-3.54 27.64-2.2L27.64-2.2Q24.07 0.73 18.73 0.73L18.73 0.73Q12.35 0.73 8.25-3.27L8.25-3.27Q4.08-7.37 3.22-14.97L3.22-14.97Q2.81-18.43 0.73-19.46L0.73-19.46Q1.88-20 2.32-20.58L2.32-20.58Q3.03-21.58 3.23-23.3 3.44-25.02 4.03-26.88 4.61-28.74 5.58-30.41 6.54-32.08 7.89-33.48 9.23-34.89 10.96-35.91L10.96-35.91Q14.62-38.09 19.51-38.09L19.51-38.09Q24.27-38.09 27.39-35.69L27.39-35.69Q30.2-33.52 31.03-29.79L31.03-29.79Q31.42-27.93 32.03-27.49L32.03-27.49Q32.28-27.29 32.64-27.12L32.64-27.12Q31.91-25.9 30.42-25.78L30.42-25.78Q29.76-25.68 29-26.05L29-26.05Q27.66-23.75 25.22-23.61L25.22-23.61Q24.71-23.56 24.44-23.8L24.44-23.8Q25.1-24.68 25.05-25.85L25.05-25.85Q25.05-26.07 24.98-26.29L24.98-26.29Q23.85-26.07 23.07-26.49L23.07-26.49Q21.8-27.22 21.75-28.08L21.75-28.08Q21.75-28.27 21.83-28.47L21.83-28.47Q23.34-28.03 24.71-29.15L24.71-29.15Q25.63-29.91 25.59-30.86 25.54-31.81 25.15-32.52 24.76-33.23 24.02-33.79L24.02-33.79Q22.36-35.11 19.87-35.11L19.87-35.11Q15.63-35.11 14.36-31.3L14.36-31.3Q13.94-30.03 13.94-28.32L13.94-28.32 13.94-23.39Q13.94-20.63 16.63-19.46L16.63-19.46Q13.94-18.16 13.94-15.23L13.94-15.23 13.94-9.2Q13.94-4.57 17.63-3.08L17.63-3.08Q18.82-2.61 20.26-2.61 21.7-2.61 22.99-3 24.27-3.39 25.24-4.22ZM8.76-6.47L8.76-6.47Q9.13-6.62 9.13-6.98L9.13-6.98Q9.13-7.52 8.62-8.67L8.62-8.67Q7.32-11.62 7.32-19.46L7.32-19.46Q7.32-25.17 8.69-29.17L8.69-29.17Q8.86-29.79 8.86-30.1 8.86-30.42 8.54-30.52L8.54-30.52Q7.4-29.08 6.91-27.66L6.91-27.66Q6.01-25.07 5.47-20.65L5.47-20.65Q5.4-20.02 4.03-19.46L4.03-19.46Q5.4-18.85 5.47-18.21L5.47-18.21Q6.35-10.64 7.71-8.11L7.71-8.11Q8.18-7.2 8.76-6.47Z" opacity="1" transform="matrix(1,0,0,1,0,0)" fill="#ffffff" class="undefined-text-0" data-fill-palette-color="quaternary" id="text-0"></path></svg></g></svg></g></svg></g></svg></g><g></g></svg></g></svg></g></svg></g><defs></defs></svg><rect width="320" height="360" fill="none" stroke="none" visibility="hidden"></rect></g></svg></g></svg>